<?xml version="1.0" encoding="UTF-8"?>
<svg version="1.1" xmlns="http://www.w3.org/2000/svg" width="512" height="512">
<path d="M0 0 C0.96955627 0.00182281 1.93911255 0.00364563 2.93804932 0.00552368 C17.26979259 0.05087263 31.28395512 0.46954578 45.375 3.3125 C46.27686035 3.48942383 47.1787207 3.66634766 48.10791016 3.84863281 C54.58082573 5.14747811 60.98520862 6.65426195 67.375 8.3125 C68.62095947 8.63492676 68.62095947 8.63492676 69.89208984 8.96386719 C110.36050039 19.69661908 147.29181601 41.33809622 177.375 70.3125 C178.3640332 71.26068604 178.3640332 71.26068604 179.37304688 72.22802734 C188.86130305 81.37247479 197.6012044 90.66984009 205.375 101.3125 C206.23306152 102.46355017 207.09113451 103.61459177 207.94921875 104.765625 C213.98677396 112.95525981 219.36957302 121.45788276 224.375 130.3125 C224.7771875 131.01971191 225.179375 131.72692383 225.59375 132.45556641 C246.88505462 170.27258285 256.86653619 212.72306956 256.6875 255.9375 C256.68476578 257.31514023 256.68476578 257.31514023 256.68197632 258.72061157 C256.63403655 273.10863072 255.99582283 287.13432116 253.375 301.3125 C253.14151855 302.66190674 253.14151855 302.66190674 252.90332031 304.03857422 C245.58130931 345.49343293 227.41098378 383.41882406 201.375 416.3125 C200.94960938 416.85503418 200.52421875 417.39756836 200.0859375 417.95654297 C188.27288779 432.89466439 174.48025461 446.82608719 159.08740234 458.05761719 C157.27704692 459.38428198 155.49163048 460.74048314 153.70703125 462.1015625 C145.27774523 468.4800074 136.59354094 474.1455963 127.375 479.3125 C126.62041504 479.74030762 125.86583008 480.16811523 125.08837891 480.60888672 C91.26989527 499.61595594 51.67043029 512.20236725 12.63671875 512.55078125 C11.72619247 512.5605751 10.8156662 512.57036896 9.87754822 512.58045959 C-19.025777 512.82713446 -45.78499743 510.6407059 -73.625 502.3125 C-74.81826904 501.96082764 -74.81826904 501.96082764 -76.03564453 501.60205078 C-86.02669465 498.61212089 -95.45113928 494.80894415 -104.81518555 490.20776367 C-105.99528198 489.64472534 -105.99528198 489.64472534 -107.19921875 489.0703125 C-108.22921997 488.56201904 -108.22921997 488.56201904 -109.2800293 488.04345703 C-115.97813414 485.95557302 -122.72575412 488.04008422 -129.3269043 489.60742188 C-130.38154373 489.85126114 -131.43618317 490.0951004 -132.52278137 490.34632874 C-134.80591269 490.87505705 -137.08825404 491.40720574 -139.36987877 491.94239807 C-142.98866636 492.79049492 -146.60974238 493.62807597 -150.23164368 494.46276855 C-160.52698856 496.83728903 -170.81808262 499.22991842 -181.10717773 501.63134766 C-187.4085961 503.10130302 -193.71288025 504.5583996 -200.01902199 506.00794983 C-202.41339994 506.56112541 -204.80663549 507.11927143 -207.19864464 507.68260193 C-210.55514958 508.47292828 -213.91506446 509.24688294 -217.27612305 510.01757812 C-218.25056366 510.25134659 -219.22500427 510.48511505 -220.22897339 510.72596741 C-228.88140301 512.67896669 -238.84309329 514.39867322 -246.87109375 509.72265625 C-251.51508951 505.98884229 -255.14452244 501.04730269 -255.91491699 495.0589447 C-256.40514935 482.78436612 -252.95107717 471.04717368 -250.15625 459.19140625 C-249.59432009 456.75846133 -249.03383749 454.32518172 -248.47473145 451.8915863 C-247.0071573 445.51748272 -245.52384384 439.14715822 -244.03594971 432.777771 C-241.64996242 422.5610274 -239.28682287 412.33898581 -236.92955017 402.11558342 C-236.10493357 398.55223293 -235.27130414 394.99107876 -234.43664551 391.43006897 C-233.93078625 389.24844857 -233.42519705 387.06676552 -232.91992188 384.88500977 C-232.68615341 383.89842377 -232.45238495 382.91183777 -232.21153259 381.89535522 C-230.07538868 372.93315009 -230.07538868 372.93315009 -232.3125 364.23046875 C-232.86019043 363.09967896 -232.86019043 363.09967896 -233.41894531 361.94604492 C-234.01594238 360.73525269 -234.01594238 360.73525269 -234.625 359.5 C-243.45751358 340.67916933 -248.89828253 320.71916707 -252.625 300.3125 C-252.78871094 299.46768066 -252.95242187 298.62286133 -253.12109375 297.75244141 C-259.78368374 262.3126936 -256.64898614 223.9791595 -247.625 189.3125 C-247.41536621 188.49394531 -247.20573242 187.67539063 -246.98974609 186.83203125 C-239.34401076 157.59106657 -225.64476658 129.54889117 -207.625 105.3125 C-206.95452637 104.40878662 -206.95452637 104.40878662 -206.27050781 103.48681641 C-199.601152 94.58233811 -192.35083724 86.31061344 -184.625 78.3125 C-184.02606934 77.69165527 -183.42713867 77.07081055 -182.81005859 76.43115234 C-175.14623497 68.52999741 -167.40501606 60.98483045 -158.625 54.3125 C-158.08472168 53.89581055 -157.54444336 53.47912109 -156.98779297 53.04980469 C-146.9927884 45.3665127 -136.53290964 38.62407032 -125.625 32.3125 C-124.94775879 31.91820801 -124.27051758 31.52391602 -123.57275391 31.11767578 C-97.65376191 16.20964629 -68.16148362 6.65098181 -38.625 2.3125 C-37.42037109 2.13517334 -36.21574219 1.95784668 -34.97460938 1.77514648 C-23.3173269 0.17617506 -11.75313934 -0.04590972 0 0 Z M-121.68359375 199.34765625 C-122.13863281 200.01667969 -122.59367188 200.68570313 -123.0625 201.375 C-123.53558594 202.04660156 -124.00867188 202.71820313 -124.49609375 203.41015625 C-127.28657831 208.11246068 -127.17611575 213.01391568 -126.625 218.3125 C-124.86444086 224.34718765 -121.03338579 229.11432083 -115.625 232.3125 C-110.14855421 234.20828386 -105.32877761 234.5997031 -99.56092834 234.57319641 C-98.67037748 234.57702196 -97.77982662 234.58084751 -96.86228937 234.58478898 C-93.8899844 234.59507519 -90.91787418 234.59113516 -87.94555664 234.5871582 C-85.80974652 234.59150707 -83.67393796 234.59669081 -81.53813171 234.60264587 C-75.74478781 234.61602763 -69.95150917 234.61661549 -64.15815282 234.61408257 C-59.31961621 234.6130124 -54.48109278 234.61789738 -49.64255899 234.622688 C-38.22727212 234.63378014 -26.81201816 234.63422209 -15.39672852 234.62817383 C-3.62412339 234.62213214 8.14836227 234.63445075 19.92094702 234.6557439 C30.03323914 234.67336089 40.14549325 234.67936113 50.25780016 234.67610615 C56.29536822 234.67429347 62.33285104 234.67692825 68.3704052 234.69082069 C74.04789235 234.70339608 79.72519324 234.70145752 85.40267754 234.68840981 C87.48436038 234.68604394 89.56605633 234.68877906 91.64772415 234.69703293 C94.49334673 234.70750096 97.33834438 234.69939912 100.1839447 234.6867218 C101.00409386 234.69409609 101.82424302 234.70147037 102.66924518 234.70906812 C110.55806921 234.63533043 117.0552759 232.41169505 122.8984375 226.96875 C127.1365007 222.21494366 127.94779759 216.94144435 127.71484375 210.80078125 C126.86530753 204.58061372 124.23048043 200.68801981 119.3125 196.875 C114.17050269 193.25290209 109.70165512 193.16400923 103.56416321 193.16532898 C102.65252873 193.16165229 101.74089425 193.1579756 100.80163449 193.1541875 C97.734043 193.1431375 94.66648538 193.13930458 91.59887695 193.13549805 C89.404545 193.12923439 87.21021412 193.12258767 85.0158844 193.11558533 C79.04464464 193.09816652 73.07341289 193.08762113 67.10215402 193.0793798 C63.37247023 193.07423143 59.64278894 193.06815562 55.91310692 193.06186867 C44.91599642 193.04390731 33.91889053 193.02952897 22.92176796 193.02169226 C20.90951522 193.02025379 18.89726249 193.01880241 16.88500977 193.01733398 C16.21890704 193.01685024 15.55280432 193.0163665 14.86651667 193.0158681 C4.07942612 193.00757025 -6.70755345 192.98223733 -17.49459555 192.94975331 C-28.57336921 192.91666322 -39.65209669 192.89900202 -50.73092109 192.89547569 C-56.94967766 192.8931238 -63.16825883 192.88414505 -69.38696861 192.85901451 C-75.23842981 192.83575045 -81.08959991 192.83149404 -86.94109535 192.84177589 C-89.0872863 192.84227177 -91.2334915 192.83593625 -93.37963867 192.82221985 C-96.31318949 192.80452202 -99.24569327 192.8115971 -102.179245 192.82475281 C-103.44857999 192.80829894 -103.44857999 192.80829894 -104.74355811 192.79151267 C-111.40463493 192.86346753 -116.8719817 194.59082536 -121.68359375 199.34765625 Z M-120.6484375 284.09375 C-121.09445313 284.6609375 -121.54046875 285.228125 -122 285.8125 C-122.46148437 286.3796875 -122.92296875 286.946875 -123.3984375 287.53125 C-127.15638725 292.98865473 -127.34715885 297.79501638 -126.625 304.3125 C-124.86940037 310.23764876 -121.66934553 313.88234504 -116.625 317.3125 C-112.14312825 319.12977502 -108.36060753 319.56679713 -103.54141235 319.57992554 C-102.85180998 319.58445665 -102.16220761 319.58898776 -101.4517082 319.59365618 C-99.15344593 319.60626175 -96.8554218 319.60468234 -94.55712891 319.60302734 C-92.9042175 319.60901496 -91.25130889 319.61582105 -89.59840393 319.62338257 C-85.11694503 319.64102501 -80.63556255 319.64573718 -76.15407228 319.64701414 C-73.35220199 319.64843718 -70.55035105 319.65270964 -67.74848557 319.65800858 C-57.96805338 319.67650232 -48.18767565 319.68467992 -38.40722656 319.68310547 C-29.29925262 319.68190391 -20.19151559 319.70301065 -11.08360159 319.7345928 C-3.25580821 319.76076608 4.57190783 319.77147234 12.39974463 319.77019465 C17.07139459 319.76968537 21.74283389 319.77534986 26.41444016 319.79655075 C30.80911058 319.81595115 35.20336974 319.81604539 39.59805489 319.80151749 C41.20726308 319.79943059 42.81649714 319.80412321 44.42566109 319.8162384 C53.70879644 319.8815818 60.99903373 319.85820121 68.3984375 313.6015625 C73.06354617 307.85781599 75.14404247 302.87475099 74.375 295.3125 C72.46549147 288.77214743 69.27005768 283.86584505 63.375 280.3125 C58.88922226 278.54414324 55.13808624 278.0582533 50.32937622 278.04507446 C49.6438574 278.04054335 48.95833858 278.03601224 48.25204647 278.03134382 C45.9676033 278.01873918 43.68339975 278.0203176 41.39892578 278.02197266 C39.75586645 278.01598498 38.11280992 278.00917888 36.46975708 278.00161743 C32.01515674 277.98397559 27.56063328 277.97926285 23.10600138 277.97798586 C20.32088201 277.97656279 17.5357821 277.97229026 14.75066757 277.96699142 C5.02859001 277.94849788 -4.69343277 277.94032006 -14.41552734 277.94189453 C-23.46897031 277.94309608 -32.52217493 277.92198941 -41.57555759 277.8904072 C-49.3566423 277.8642334 -57.1376492 277.85352768 -64.91877759 277.85480535 C-69.56248238 277.85531461 -74.20597525 277.84965098 -78.84963608 277.82844925 C-83.21804246 277.80904796 -87.58603513 277.8089552 -91.95445633 277.82348251 C-93.55398922 277.8255693 -95.15354814 277.82087745 -96.7530365 277.8087616 C-105.97623306 277.74344422 -113.38875167 277.70298409 -120.6484375 284.09375 Z " fill="#2592F2" transform="translate(255.625,-0.3125)"/>
</svg>
